<svg width="278" height="462" viewBox="0 0 278 462" fill="none" xmlns="http://www.w3.org/2000/svg">
<path d="M55 240H220.5L266 461.5H12L55 240Z" fill="#C6397D"/>
<line x1="87" y1="287" x2="188" y2="287" stroke="white" stroke-width="10"/>
<line x1="67" y1="404" x2="200" y2="404" stroke="white" stroke-width="10"/>
<line x1="67.4797" y1="404.449" x2="184.48" y2="288.449" stroke="white" stroke-width="10"/>
<circle cx="74.5" cy="400.5" r="13" fill="white" stroke="#C6397D"/>
<circle cx="180.5" cy="286.5" r="13" fill="white" stroke="#C6397D"/>
<path fill-rule="evenodd" clip-rule="evenodd" d="M139 278C215.768 278 278 215.768 278 139C278 62.2324 215.768 0 139 0C62.2324 0 0 62.2324 0 139C0 215.768 62.2324 278 139 278ZM139 236C192.572 236 236 192.572 236 139C236 85.4284 192.572 42 139 42C85.4284 42 42 85.4284 42 139C42 192.572 85.4284 236 139 236Z" fill="#C6397D"/>
</svg>
